# xmcd
#
# Track frame offsets:
#	150
#	18133
#	29720
#	46509
#	57278
#	72224
#	86694
#	100321
#	120528
#	133258
#
# Disc length: 2013 seconds
#
# Revision: 1
# Processed by: cddbd v1.5PL3 Copyright (c) Steve Scherf et al.
# Submitted via: audiograbber 1.80
#
DISCID=8107db0a
DTITLE=Old Crow Medicine Show - Live
DYEAR=1900
DGENRE=
TTITLE0=Johnny Get Your Gun
TTITLE1=All Night Long
TTITLE2=Can't Get Right Blues
TTITLE3=Ben Ward's Tune
TTITLE4=Hard To Tell
TTITLE5=My Bones Gonna Rise Again
TTITLE6=Sally Anne
TTITLE7=Fall On My Knees
TTITLE8=Trouble That I'm In
TTITLE9=Tell It To Me
EXTD=
EXTT0=
EXTT1=
EXTT2=
EXTT3=
EXTT4=
EXTT5=
EXTT6=
EXTT7=
EXTT8=
EXTT9=
PLAYORDER=
